<svg xmlns="http://www.w3.org/2000/svg" xmlns:xlink="http://www.w3.org/1999/xlink" width="500" zoomAndPan="magnify" viewBox="0 0 375 374.999991" height="500" preserveAspectRatio="xMidYMid meet" version="1.0"><defs><g/><clipPath id="b1840272f6"><path d="M 238 15.1875 L 287.871094 15.1875 L 287.871094 140 L 238 140 Z M 238 15.1875 " clip-rule="nonzero"/></clipPath><clipPath id="8dd067844b"><path d="M 87 91 L 287.871094 91 L 287.871094 291.9375 L 87 291.9375 Z M 87 91 " clip-rule="nonzero"/></clipPath></defs><path fill="#10463f" d="M 162.9375 52.4375 L 211.808594 52.4375 L 211.808594 139.335938 L 162.9375 139.335938 Z M 162.9375 52.4375 " fill-opacity="1" fill-rule="nonzero"/><g clip-path="url(#b1840272f6)"><path fill="#10463f" d="M 238.867188 15.1875 L 287.738281 15.1875 L 287.738281 139.335938 L 238.867188 139.335938 Z M 238.867188 15.1875 " fill-opacity="1" fill-rule="nonzero"/></g><g clip-path="url(#8dd067844b)"><path fill="#61afa1" d="M 204.351562 215.996094 L 162.9375 215.996094 L 162.9375 167.066406 L 287.738281 167.066406 L 287.738281 291.9375 L 238.867188 291.9375 L 238.867188 250.421875 L 197.507812 291.9375 L 87.007812 291.9375 L 87.007812 91.292969 L 135.878906 91.292969 L 135.878906 243.171875 L 177.351562 243.171875 Z M 204.351562 215.996094 " fill-opacity="1" fill-rule="nonzero"/></g><g fill="#10463f" fill-opacity="1"><g transform="translate(9.341271, 358.552706)"><g><path d="M 17.4375 -14.265625 L 9.6875 -16.09375 C 6.601562 -16.820312 4.5 -17.9375 3.375 -19.4375 C 2.257812 -20.945312 1.703125 -23.101562 1.703125 -25.90625 C 1.703125 -30.332031 2.867188 -33.59375 5.203125 -35.6875 C 7.546875 -37.78125 11.175781 -38.828125 16.09375 -38.828125 C 18.125 -38.828125 19.929688 -38.742188 21.515625 -38.578125 C 23.097656 -38.421875 24.5625 -38.140625 25.90625 -37.734375 L 25.90625 -29.25 C 22.8125 -29.78125 20.6875 -30.085938 19.53125 -30.171875 C 18.375 -30.253906 17.164062 -30.296875 15.90625 -30.296875 C 14.195312 -30.296875 12.957031 -30.007812 12.1875 -29.4375 C 11.414062 -28.875 11.03125 -27.921875 11.03125 -26.578125 C 11.03125 -25.921875 11.148438 -25.421875 11.390625 -25.078125 C 11.640625 -24.734375 12.109375 -24.476562 12.796875 -24.3125 L 20.109375 -22.609375 C 22.222656 -22.117188 23.75 -21.640625 24.6875 -21.171875 C 25.625 -20.710938 26.375 -20.117188 26.9375 -19.390625 C 27.59375 -18.609375 28.070312 -17.609375 28.375 -16.390625 C 28.675781 -15.171875 28.828125 -13.691406 28.828125 -11.953125 C 28.828125 -7.515625 27.648438 -4.3125 25.296875 -2.34375 C 22.941406 -0.375 19.285156 0.609375 14.328125 0.609375 C 11.804688 0.609375 9.40625 0.453125 7.125 0.140625 C 4.851562 -0.160156 3.085938 -0.53125 1.828125 -0.96875 L 1.828125 -9.9375 C 3.453125 -9.40625 5.378906 -8.988281 7.609375 -8.6875 C 9.847656 -8.382812 12.085938 -8.234375 14.328125 -8.234375 C 16.109375 -8.234375 17.34375 -8.453125 18.03125 -8.890625 C 18.726562 -9.335938 19.078125 -10.234375 19.078125 -11.578125 C 19.078125 -12.429688 18.960938 -13.050781 18.734375 -13.4375 C 18.515625 -13.820312 18.082031 -14.097656 17.4375 -14.265625 Z M 17.4375 -14.265625 "/></g></g></g><g fill="#10463f" fill-opacity="1"><g transform="translate(42.009056, 358.552706)"><g><path d="M 12.375 -10.734375 L 12.375 0 L 2.921875 0 L 2.921875 -38.21875 L 16.890625 -38.21875 C 22.773438 -38.21875 26.957031 -37.191406 29.4375 -35.140625 C 31.914062 -33.085938 33.15625 -29.644531 33.15625 -24.8125 C 33.15625 -20.007812 31.84375 -16.460938 29.21875 -14.171875 C 26.601562 -11.878906 22.550781 -10.734375 17.0625 -10.734375 Z M 23.59375 -24.8125 C 23.59375 -26.59375 23.101562 -27.847656 22.125 -28.578125 C 21.144531 -29.316406 19.398438 -29.6875 16.890625 -29.6875 L 12.375 -29.6875 L 12.375 -19.015625 L 16.890625 -19.015625 C 19.441406 -19.015625 21.195312 -19.441406 22.15625 -20.296875 C 23.113281 -21.148438 23.59375 -22.65625 23.59375 -24.8125 Z M 23.59375 -24.8125 "/></g></g></g><g fill="#10463f" fill-opacity="1"><g transform="translate(79.065022, 358.552706)"><g><path d="M 29.25 -8.84375 L 29.25 0 L 2.921875 0 L 2.921875 -38.21875 L 28.703125 -38.21875 L 28.703125 -29.6875 L 12.375 -29.6875 L 12.375 -23.34375 L 26.453125 -23.34375 L 26.453125 -15.421875 L 12.375 -15.421875 L 12.375 -8.84375 Z M 29.25 -8.84375 "/></g></g></g><g fill="#10463f" fill-opacity="1"><g transform="translate(112.707964, 358.552706)"><g><path d="M 35.90625 -38.21875 L 35.90625 0 L 26.875 0 L 11.765625 -22.0625 L 11.765625 0 L 2.921875 0 L 2.921875 -38.21875 L 11.890625 -38.21875 L 27.0625 -15.296875 L 27.0625 -38.21875 Z M 35.90625 -38.21875 "/></g></g></g><g fill="#10463f" fill-opacity="1"><g transform="translate(154.395913, 358.552706)"><g><path d="M 16.28125 0 L 2.921875 0 L 2.921875 -38.21875 L 16.28125 -38.21875 C 20.175781 -38.21875 23.269531 -37.890625 25.5625 -37.234375 C 27.863281 -36.585938 29.707031 -35.554688 31.09375 -34.140625 C 32.46875 -32.710938 33.46875 -30.789062 34.09375 -28.375 C 34.726562 -25.957031 35.046875 -22.878906 35.046875 -19.140625 C 35.046875 -12.515625 33.5625 -7.664062 30.59375 -4.59375 C 27.632812 -1.53125 22.863281 0 16.28125 0 Z M 23.765625 -27.25 C 23.203125 -28.101562 22.367188 -28.722656 21.265625 -29.109375 C 20.171875 -29.492188 18.507812 -29.6875 16.28125 -29.6875 L 12.375 -29.6875 L 12.375 -8.84375 L 16.28125 -8.84375 C 18.46875 -8.84375 20.109375 -9.023438 21.203125 -9.390625 C 22.304688 -9.753906 23.160156 -10.34375 23.765625 -11.15625 C 24.296875 -11.925781 24.679688 -12.953125 24.921875 -14.234375 C 25.171875 -15.515625 25.296875 -17.148438 25.296875 -19.140625 C 25.296875 -21.171875 25.171875 -22.828125 24.921875 -24.109375 C 24.679688 -25.390625 24.296875 -26.4375 23.765625 -27.25 Z M 23.765625 -27.25 "/></g></g></g><g fill="#10463f" fill-opacity="1"><g transform="translate(193.950719, 358.552706)"><g><path d="M 9.75 0 L -0.1875 0 L 13.953125 -38.21875 L 23.765625 -38.21875 L 37.546875 0 L 27.671875 0 L 25.65625 -6.40625 L 11.765625 -6.40625 Z M 18.65625 -28.828125 C 18.320312 -27.691406 17.960938 -26.484375 17.578125 -25.203125 C 17.191406 -23.921875 16.554688 -21.835938 15.671875 -18.953125 L 14.078125 -13.890625 L 23.28125 -13.890625 L 21.703125 -18.953125 C 21.171875 -20.492188 20.640625 -22.128906 20.109375 -23.859375 C 19.585938 -25.585938 19.101562 -27.242188 18.65625 -28.828125 Z M 18.65625 -28.828125 "/></g></g></g><g fill="#10463f" fill-opacity="1"><g transform="translate(234.297826, 358.552706)"><g><path d="M 10.0625 0 L 0 -38.21875 L 10.234375 -38.21875 L 14.265625 -19.328125 C 14.421875 -18.671875 14.59375 -17.796875 14.78125 -16.703125 C 14.96875 -15.609375 15.28125 -13.492188 15.71875 -10.359375 C 15.84375 -11.128906 16.078125 -12.613281 16.421875 -14.8125 C 16.765625 -17.007812 17.019531 -18.492188 17.1875 -19.265625 L 21.09375 -38.21875 L 30.96875 -38.21875 L 34.984375 -19.328125 C 35.148438 -18.671875 35.320312 -17.796875 35.5 -16.703125 C 35.6875 -15.609375 36.003906 -13.492188 36.453125 -10.359375 C 36.578125 -11.128906 36.8125 -12.613281 37.15625 -14.8125 C 37.5 -17.007812 37.75 -18.492188 37.90625 -19.265625 L 41.8125 -38.21875 L 51.75 -38.21875 L 41.75 0 L 30.84375 0 L 28.40625 -11.578125 C 28 -13.523438 27.59375 -15.578125 27.1875 -17.734375 C 26.78125 -19.890625 26.351562 -22.269531 25.90625 -24.875 C 25.257812 -21.25 24.75 -18.519531 24.375 -16.6875 C 24.007812 -14.863281 23.664062 -13.160156 23.34375 -11.578125 L 20.90625 0 Z M 10.0625 0 "/></g></g></g><g fill="#10463f" fill-opacity="1"><g transform="translate(288.90656, 358.552706)"><g><path d="M 9.75 0 L -0.1875 0 L 13.953125 -38.21875 L 23.765625 -38.21875 L 37.546875 0 L 27.671875 0 L 25.65625 -6.40625 L 11.765625 -6.40625 Z M 18.65625 -28.828125 C 18.320312 -27.691406 17.960938 -26.484375 17.578125 -25.203125 C 17.191406 -23.921875 16.554688 -21.835938 15.671875 -18.953125 L 14.078125 -13.890625 L 23.28125 -13.890625 L 21.703125 -18.953125 C 21.171875 -20.492188 20.640625 -22.128906 20.109375 -23.859375 C 19.585938 -25.585938 19.101562 -27.242188 18.65625 -28.828125 Z M 18.65625 -28.828125 "/></g></g></g><g fill="#10463f" fill-opacity="1"><g transform="translate(329.253666, 358.552706)"><g><path d="M 26.640625 -38.21875 L 36.390625 -38.21875 L 23.046875 -13.890625 L 23.046875 0 L 13.59375 0 L 13.59375 -13.890625 L -0.125 -38.21875 L 10.671875 -38.21875 L 18.34375 -22.25 Z M 26.640625 -38.21875 "/></g></g></g></svg>