<svg xmlns="http://www.w3.org/2000/svg" xmlns:xlink="http://www.w3.org/1999/xlink" width="500" zoomAndPan="magnify" viewBox="0 0 375 374.999991" height="500" preserveAspectRatio="xMidYMid meet" version="1.0"><defs><clipPath id="fbe4f7d58c"><path d="M 259 7.609375 L 323.375 7.609375 L 323.375 170 L 259 170 Z M 259 7.609375 " clip-rule="nonzero"/></clipPath><clipPath id="1bb72fc371"><path d="M 61.753906 106 L 323.375 106 L 323.375 367.609375 L 61.753906 367.609375 Z M 61.753906 106 " clip-rule="nonzero"/></clipPath></defs><path fill="#10463f" d="M 160.679688 56.066406 L 224.320312 56.066406 L 224.320312 169.105469 L 160.679688 169.105469 Z M 160.679688 56.066406 " fill-opacity="1" fill-rule="nonzero"/><g clip-path="url(#fbe4f7d58c)"><path fill="#10463f" d="M 259.554688 7.609375 L 323.195312 7.609375 L 323.195312 169.105469 L 259.554688 169.105469 Z M 259.554688 7.609375 " fill-opacity="1" fill-rule="nonzero"/></g><g clip-path="url(#1bb72fc371)"><path fill="#61afa1" d="M 214.613281 268.828125 L 160.679688 268.828125 L 160.679688 205.179688 L 323.195312 205.179688 L 323.195312 367.609375 L 259.554688 367.609375 L 259.554688 313.609375 L 205.695312 367.609375 L 61.800781 367.609375 L 61.800781 106.609375 L 125.441406 106.609375 L 125.441406 304.179688 L 179.449219 304.179688 Z M 214.613281 268.828125 " fill-opacity="1" fill-rule="nonzero"/></g></svg>